<?xml version="1.0" encoding="UTF-8" standalone="no"?>
<!-- Generator: Adobe Illustrator 16.0.0, SVG Export Plug-In . SVG Version: 6.00 Build 0)  -->

<svg
   version="1.1"
   id="Capa_1"
   x="0px"
   y="0px"
   width="256.21768"
   height="203.88173"
   viewBox="0 0 256.21769 203.88173"
   xml:space="preserve"
   sodipodi:docname="wireless-signal-small-2.svg"
   inkscape:version="1.2.1 (9c6d41e410, 2022-07-14, custom)"
   xmlns:inkscape="http://www.inkscape.org/namespaces/inkscape"
   xmlns:sodipodi="http://sodipodi.sourceforge.net/DTD/sodipodi-0.dtd"
   xmlns="http://www.w3.org/2000/svg"
   xmlns:svg="http://www.w3.org/2000/svg"><defs
   id="defs45"><inkscape:path-effect
     effect="knot"
     id="path-effect620"
     is_visible="true"
     lpeversion="1"
     switcher_size="16.6"
     interruption_width="3.3"
     prop_to_stroke_width="true"
     add_stroke_width="inkscape_1.0_and_up"
     both="false"
     inverse_width="false"
     add_other_stroke_width="inkscape_1.0_and_up"
     crossing_points_vector="" /><inkscape:path-effect
     effect="bend_path"
     id="path-effect522"
     is_visible="true"
     lpeversion="1"
     bendpath="M 88.258674,400.47751 H 809.67912"
     prop_scale="1"
     scale_y_rel="false"
     vertical="false"
     hide_knot="false" /></defs><sodipodi:namedview
   id="namedview43"
   pagecolor="#ffffff"
   bordercolor="#000000"
   borderopacity="0.25"
   inkscape:showpageshadow="2"
   inkscape:pageopacity="0.0"
   inkscape:pagecheckerboard="0"
   inkscape:deskcolor="#d1d1d1"
   showgrid="false"
   inkscape:zoom="0.84725102"
   inkscape:cx="127.47108"
   inkscape:cy="102.68503"
   inkscape:window-width="1920"
   inkscape:window-height="989"
   inkscape:window-x="0"
   inkscape:window-y="0"
   inkscape:window-maximized="1"
   inkscape:current-layer="Capa_1" />

<g
   id="g12"
   transform="matrix(0.28525684,0,0,0.28525684,0,-25.635933)">
</g>
<g
   id="g14"
   transform="matrix(0.28525684,0,0,0.28525684,0,-25.635933)">
</g>
<g
   id="g16"
   transform="matrix(0.28525684,0,0,0.28525684,0,-25.635933)">
</g>
<g
   id="g18"
   transform="matrix(0.28525684,0,0,0.28525684,0,-25.635933)">
</g>
<g
   id="g20"
   transform="matrix(0.28525684,0,0,0.28525684,0,-25.635933)">
</g>
<g
   id="g22"
   transform="matrix(0.28525684,0,0,0.28525684,0,-25.635933)">
</g>
<g
   id="g24"
   transform="matrix(0.28525684,0,0,0.28525684,0,-25.635933)">
</g>
<g
   id="g26"
   transform="matrix(0.28525684,0,0,0.28525684,0,-25.635933)">
</g>
<g
   id="g28"
   transform="matrix(0.28525684,0,0,0.28525684,0,-25.635933)">
</g>
<g
   id="g30"
   transform="matrix(0.28525684,0,0,0.28525684,0,-25.635933)">
</g>
<g
   id="g32"
   transform="matrix(0.28525684,0,0,0.28525684,0,-25.635933)">
</g>
<g
   id="g34"
   transform="matrix(0.28525684,0,0,0.28525684,0,-25.635933)">
</g>
<g
   id="g36"
   transform="matrix(0.28525684,0,0,0.28525684,0,-25.635933)">
</g>
<g
   id="g38"
   transform="matrix(0.28525684,0,0,0.28525684,0,-25.635933)">
</g>
<g
   id="g40"
   transform="matrix(0.28525684,0,0,0.28525684,0,-25.635933)">
</g>
<path
   sodipodi:type="star"
   style="fill:#aa0000;stroke-width:9.82677;stroke-dasharray:60.4724, 7.55906;stroke-dashoffset:9.07087"
   id="path732"
   inkscape:flatsided="false"
   sodipodi:sides="4"
   sodipodi:cx="211.5761"
   sodipodi:cy="136.89087"
   sodipodi:r1="170.8739"
   sodipodi:r2="17.087391"
   sodipodi:arg1="2.4273282"
   sodipodi:arg2="3.2127264"
   inkscape:rounded="0.06"
   inkscape:randomized="0"
   d="M 82.468001,248.82384 C 76.208873,241.6043 193.85281,145.20726 194.53192,135.6764 195.21103,126.14555 92.423588,14.041902 99.643124,7.7827743 106.86266,1.5236462 203.25971,119.16758 212.79056,119.84669 c 9.53086,0.67911 121.6345,-102.108328 127.89363,-94.888792 6.25913,7.219536 -111.38481,103.616582 -112.06392,113.147432 -0.67911,9.53086 102.10833,121.63451 94.8888,127.89363 -7.21954,6.25913 -103.61658,-111.3848 -113.14744,-112.06391 -9.53085,-0.67911 -121.634501,102.10833 -127.893629,94.88879 z"
   transform="matrix(0.60864305,-0.04301545,0.04301545,0.60864305,-6.55389,19.730597)" /></svg>
