<?xml version="1.0" encoding="UTF-8" standalone="no"?>
<!-- Generator: Adobe Illustrator 16.0.0, SVG Export Plug-In . SVG Version: 6.00 Build 0)  -->

<svg
   version="1.1"
   id="Capa_1"
   x="0px"
   y="0px"
   width="256.21768"
   height="203.88173"
   viewBox="0 0 256.21769 203.88173"
   xml:space="preserve"
   sodipodi:docname="wireless-signal-small-1.svg"
   inkscape:version="1.2.1 (9c6d41e410, 2022-07-14, custom)"
   xmlns:inkscape="http://www.inkscape.org/namespaces/inkscape"
   xmlns:sodipodi="http://sodipodi.sourceforge.net/DTD/sodipodi-0.dtd"
   xmlns="http://www.w3.org/2000/svg"
   xmlns:svg="http://www.w3.org/2000/svg"><defs
   id="defs45"><inkscape:path-effect
     effect="knot"
     id="path-effect620"
     is_visible="true"
     lpeversion="1"
     switcher_size="16.6"
     interruption_width="3.3"
     prop_to_stroke_width="true"
     add_stroke_width="inkscape_1.0_and_up"
     both="false"
     inverse_width="false"
     add_other_stroke_width="inkscape_1.0_and_up"
     crossing_points_vector="" /><inkscape:path-effect
     effect="bend_path"
     id="path-effect522"
     is_visible="true"
     lpeversion="1"
     bendpath="M 88.258674,400.47751 H 809.67912"
     prop_scale="1"
     scale_y_rel="false"
     vertical="false"
     hide_knot="false" /></defs><sodipodi:namedview
   id="namedview43"
   pagecolor="#ffffff"
   bordercolor="#000000"
   borderopacity="0.25"
   inkscape:showpageshadow="2"
   inkscape:pageopacity="0.0"
   inkscape:pagecheckerboard="0"
   inkscape:deskcolor="#d1d1d1"
   showgrid="false"
   inkscape:zoom="0.84725102"
   inkscape:cx="127.47108"
   inkscape:cy="102.68503"
   inkscape:window-width="1920"
   inkscape:window-height="989"
   inkscape:window-x="0"
   inkscape:window-y="0"
   inkscape:window-maximized="1"
   inkscape:current-layer="Capa_1" />
<g
   id="g10"
   style="fill:#f2f2f2"
   transform="matrix(0.28525684,0,0,0.28525684,0,-25.635933)">
	<g
   id="g8"
   style="fill:#f2f2f2">
		<circle
   cx="450.30099"
   cy="711.20001"
   r="93.400002"
   id="circle2"
   style="fill:#f2f2f2" />
		<path
   d="M 716.801,463.8 C 682.199,429.199 641.9,402 597,383.1 550.5,363.4 501.1,353.4 450.301,353.4 c -52,0 -102.401,10.4 -149.801,30.9 -45.7,19.8 -86.5,48.1 -121.3,84.1 l 115,111.2 c 41.3,-42.7 96.601,-66.2 156,-66.2 57.9,0 112.4,22.601 153.4,63.5 z"
   id="path4"
   style="fill:#f2f2f2" />
		<path
   d="M 450.301,93.6 C 364.4,93.6 281,110.399 202.4,143.7 126.6,175.8 58.5,221.7 0,280.1 L 113.1,393.2 C 156.9,349.4 207.9,315 264.6,291 c 58.7,-24.8 121.1,-37.4 185.5,-37.4 126.5,0 245.6,49 335.5,138 L 898.2,277.9 C 840.1,220.2 772.2,174.8 696.802,143.1 618.699,110.3 535.699,93.6 450.301,93.6 Z"
   id="path6"
   style="fill:#f2f2f2" />
	</g>
</g>
<g
   id="g12"
   transform="matrix(0.28525684,0,0,0.28525684,0,-25.635933)">
</g>
<g
   id="g14"
   transform="matrix(0.28525684,0,0,0.28525684,0,-25.635933)">
</g>
<g
   id="g16"
   transform="matrix(0.28525684,0,0,0.28525684,0,-25.635933)">
</g>
<g
   id="g18"
   transform="matrix(0.28525684,0,0,0.28525684,0,-25.635933)">
</g>
<g
   id="g20"
   transform="matrix(0.28525684,0,0,0.28525684,0,-25.635933)">
</g>
<g
   id="g22"
   transform="matrix(0.28525684,0,0,0.28525684,0,-25.635933)">
</g>
<g
   id="g24"
   transform="matrix(0.28525684,0,0,0.28525684,0,-25.635933)">
</g>
<g
   id="g26"
   transform="matrix(0.28525684,0,0,0.28525684,0,-25.635933)">
</g>
<g
   id="g28"
   transform="matrix(0.28525684,0,0,0.28525684,0,-25.635933)">
</g>
<g
   id="g30"
   transform="matrix(0.28525684,0,0,0.28525684,0,-25.635933)">
</g>
<g
   id="g32"
   transform="matrix(0.28525684,0,0,0.28525684,0,-25.635933)">
</g>
<g
   id="g34"
   transform="matrix(0.28525684,0,0,0.28525684,0,-25.635933)">
</g>
<g
   id="g36"
   transform="matrix(0.28525684,0,0,0.28525684,0,-25.635933)">
</g>
<g
   id="g38"
   transform="matrix(0.28525684,0,0,0.28525684,0,-25.635933)">
</g>
<g
   id="g40"
   transform="matrix(0.28525684,0,0,0.28525684,0,-25.635933)">
</g>
</svg>
